<?xml version="1.0" encoding="UTF-8"?>
<svg width="100" height="32" viewBox="0 0 100 32" fill="none" xmlns="http://www.w3.org/2000/svg">
  <!-- NetApp Logo -->
  <g>
    <!-- Blue N and cubes -->
    <rect x="0" y="4" width="4" height="20" fill="#0067C5"/>
    <polygon points="4,4 12,16 12,4 16,4 16,24 12,24 4,12 4,24 0,24 0,4" fill="#0067C5"/>
    
    <!-- Orange/Red cubes -->
    <rect x="20" y="4" width="4" height="4" fill="#FF6B35"/>
    <rect x="20" y="12" width="4" height="4" fill="#FF6B35"/>
    <rect x="20" y="20" width="4" height="4" fill="#FF6B35"/>
    
    <!-- Text "etApp" -->
    <g fill="#4D4D4D">
      <path d="M30 8v2h6v1.5h-6v2.5h7v2h-9V8h8v0h-6z"/>
      <path d="M40 8v4h3v-4h2v6h-2v-2h-3v2h-2V8h2z"/>
      <path d="M48 8h4c1 0 2 0.5 2 1.5v3c0 1-1 1.5-2 1.5h-2v2h-2V8zm2 1.5v3h2v-3h-2z"/>
      <path d="M58 8h4c1 0 2 0.5 2 1.5v3c0 1-1 1.5-2 1.5h-2v2h-2V8zm2 1.5v3h2v-3h-2z"/>
    </g>
  </g>
</svg>
